<?xml version="1.0" encoding="utf-8"?>
<!-- Generator: Adobe Illustrator 15.1.0, SVG Export Plug-In . SVG Version: 6.00 Build 0)  -->
<!DOCTYPE svg PUBLIC "-//W3C//DTD SVG 1.1//EN" "http://www.w3.org/Graphics/SVG/1.1/DTD/svg11.dtd">
<svg version="1.1" id="Layer_1" xmlns="http://www.w3.org/2000/svg" xmlns:xlink="http://www.w3.org/1999/xlink" x="0px" y="0px"
	 width="612px" height="792px" viewBox="0 0 612 792" enable-background="new 0 0 612 792" xml:space="preserve">
<g>
	<path fill="#FFFFFF" d="M300.492,206.892c-3.672,0.612-5.508,5.508-2.448,8.568l100.98,99.144H115.056h-0.612
		c-2.448,0-4.896,2.448-4.896,4.896s2.448,4.896,5.508,4.896h283.356L298.044,423.54c-1.836,1.836-1.836,4.896,0,6.731
		c1.836,1.837,4.896,1.837,6.732,0L413.712,322.56c1.836-1.836,1.836-4.896,0-6.732l-108.936-107.1
		c-0.612-0.612-2.448-1.836-3.672-1.836H300.492L300.492,206.892z"/>
</g>
</svg>
