<?xml version="1.0" encoding="UTF-8" standalone="no"?>
<svg width="23px" height="30px" viewBox="0 0 23 30" version="1.1" xmlns="http://www.w3.org/2000/svg" xmlns:xlink="http://www.w3.org/1999/xlink" xmlns:sketch="http://www.bohemiancoding.com/sketch/ns">
    <!-- Generator: Sketch 3.5.2 (25235) - http://www.bohemiancoding.com/sketch -->
    <title>tarsh_L</title>
    <desc>Created with Sketch.</desc>
    <defs></defs>
    <g id="Employer" stroke="none" stroke-width="1" fill="none" fill-rule="evenodd" sketch:type="MSPage">
        <g id="Employer:-Coverage-Formulary-Edit" sketch:type="MSArtboardGroup" transform="translate(-1098.000000, -407.000000)" fill="#1D8DCD">
            <g id="Group-3" sketch:type="MSLayerGroup" transform="translate(1098.000000, 406.000000)">
                <path d="M19.2402,28.5382 L19.2378,28.5688 L19.2378,28.6 C19.2378,29.2612 18.6996,29.8 18.0378,29.8 L4.8378,29.8 C4.1766,29.8 3.6378,29.2612 3.6378,28.6 L3.6378,28.5688 L3.6366,28.537 L2.4378,5.8 L20.4168,5.8 L19.2402,28.5382 L19.2402,28.5382 L19.2402,28.5382 L19.2402,28.5382 Z M7.2,3.4 C7.2,2.7382 7.7394,2.2 8.4,2.2 L14.4,2.2 C15.0624,2.2 15.6,2.7382 15.6,3.4 L15.6,4.6 L7.2,4.6 L7.2,3.4 L7.2,3.4 L7.2,3.4 L7.2,3.4 Z M22.8,4.6 L16.8,4.6 L16.8,3.4 C16.8,2.0746 15.7254,1 14.4,1 L8.4,1 C7.0746,1 6,2.0746 6,3.4 L6,4.6 L0,4.6 L0,5.8 L1.2366,5.8 L2.4378,28.6 C2.4378,29.9254 3.5124,31 4.8378,31 L18.0378,31 C19.3632,31 20.4378,29.9254 20.4378,28.6 L21.618,5.8 L22.8,5.8 L22.8,4.6 L22.8,4.6 Z M16.8084,8.2378 L15.6108,8.1628 L14.4,27.3628 L15.5982,27.4378 L16.8084,8.2378 M8.427,27.3616 L7.1988,8.1988 L6.0012,8.275 L7.2294,27.4378 L8.427,27.3616 M10.8,8.2 L12,8.2 L12,27.4 L10.8,27.4 L10.8,27.4 L10.8,8.2 L10.8,8.2 Z" id="tarsh_L" sketch:type="MSShapeGroup"></path>
            </g>
        </g>
    </g>
</svg>