<?xml version="1.0" encoding="UTF-8" standalone="no"?>
<svg width="70px" height="70px" viewBox="0 0 70 70" version="1.1" xmlns="http://www.w3.org/2000/svg" xmlns:xlink="http://www.w3.org/1999/xlink" xmlns:sketch="http://www.bohemiancoding.com/sketch/ns">
    <!-- Generator: Sketch 3.5.2 (25235) - http://www.bohemiancoding.com/sketch -->
    <title>Group</title>
    <desc>Created with Sketch.</desc>
    <defs>
        <filter x="-50%" y="-50%" width="200%" height="200%" filterUnits="objectBoundingBox" id="filter-1">
            <feOffset dx="0" dy="4" in="SourceAlpha" result="shadowOffsetOuter1"></feOffset>
            <feGaussianBlur stdDeviation="5" in="shadowOffsetOuter1" result="shadowBlurOuter1"></feGaussianBlur>
            <feColorMatrix values="0 0 0 0 0   0 0 0 0 0   0 0 0 0 0  0 0 0 0.14 0" in="shadowBlurOuter1" type="matrix" result="shadowMatrixOuter1"></feColorMatrix>
            <feMerge>
                <feMergeNode in="shadowMatrixOuter1"></feMergeNode>
                <feMergeNode in="SourceGraphic"></feMergeNode>
            </feMerge>
        </filter>
        <path id="path-2" d="M0,0.5 L39.105,0.5 L39.105,31 L0,31 L0,0.5 Z"></path>
    </defs>
    <g id="Employer" stroke="none" stroke-width="1" fill="none" fill-rule="evenodd" sketch:type="MSPage">
        <g id="Group" sketch:type="MSLayerGroup" transform="translate(10.000000, 6.000000)">
            <g id="compose" filter="url(#filter-1)" fill="#1D8DCD" sketch:type="MSShapeGroup" opacity="0.95">
                <circle id="bg" cx="25" cy="25" r="25"></circle>
            </g>
            <g id="Group-3" transform="translate(2.000000, 10.000000)">
                <mask id="mask-3" sketch:name="Clip 2" fill="white">
                    <use xlink:href="#path-2"></use>
                </mask>
                <g id="Clip-2"></g>
                <path d="M35.2,10.3 L29.3,4.4 L31.4,2.3 L37.3,8.2 L35.2,10.3 Z M11.1,28.5 L11.9,22.9 L14.3,25.3 L16.7,27.7 L11.1,28.5 Z M28.3,5.4 L34.2,11.3 L18.4,27.1 L15.5,24.2 L12.6,21.3 L28.3,5.4 Z M38.9,7.7 L31.9,0.7 C31.8,0.6 31.6,0.5 31.4,0.5 C31.2,0.5 31,0.6 30.9,0.7 L10.9,20.7 C10.8,20.8 10.8,20.8 10.8,20.9 L10.8,21 L9.6,29.1 C9.6,29.3 9.6,29.6 9.8,29.7 C9.9,29.8 10.1,29.9 10.3,29.9 L10.4,29.9 L18.5,28.7 L18.6,28.7 C18.7,28.7 18.8,28.6 18.8,28.6 L35.6,11.8 L38.7,8.7 C39.2,8.4 39.2,8 38.9,7.7 L38.9,7.7 Z" id="Fill-1" fill="#FFFFFF" sketch:type="MSShapeGroup" mask="url(#mask-3)"></path>
            </g>
        </g>
    </g>
</svg>