<?xml version="1.0" encoding="utf-8"?>
<!-- Generator: Adobe Illustrator 15.1.0, SVG Export Plug-In . SVG Version: 6.00 Build 0)  -->
<!DOCTYPE svg PUBLIC "-//W3C//DTD SVG 1.1//EN" "http://www.w3.org/Graphics/SVG/1.1/DTD/svg11.dtd">
<svg version="1.1" id="Layer_1" xmlns:sketch="http://www.bohemiancoding.com/sketch/ns"
	 xmlns="http://www.w3.org/2000/svg" xmlns:xlink="http://www.w3.org/1999/xlink" x="0px" y="0px" width="70px" height="70px"
	 viewBox="0 0 70 70" enable-background="new 0 0 70 70" xml:space="preserve">
<title>Group</title>
<desc>Created with Sketch.</desc>
<g id="Employer" sketch:type="MSPage">
	<g id="Group" transform="translate(10.000000, 6.000000)" sketch:type="MSLayerGroup">
		<g id="Group-3" transform="translate(2.000000, 10.000000)">
			<g id="Clip-2">
			</g>
			<defs>
				<filter id="Adobe_OpacityMaskFilter" filterUnits="userSpaceOnUse" x="9.6" y="0.5" width="29.505" height="29.4">
					<feColorMatrix  type="matrix" values="1 0 0 0 0  0 1 0 0 0  0 0 1 0 0  0 0 0 1 0"/>
				</filter>
			</defs>
			<mask maskUnits="userSpaceOnUse" x="9.6" y="0.5" width="29.505" height="29.4" id="mask-3">
				<g filter="url(#Adobe_OpacityMaskFilter)">
					<path id="path-2" fill="#FFFFFF" d="M0,0.5h39.105V31H0V0.5z"/>
				</g>
			</mask>
			<path id="Fill-1" sketch:type="MSShapeGroup" mask="url(#mask-3)" fill="#1D8DCD" d="M35.2,10.3l-5.9-5.9L31.4,2.3L37.3,8.2
				L35.2,10.3z M11.1,28.5l0.8-5.6l2.4,2.399l2.4,2.4L11.1,28.5z M28.3,5.4l5.9,5.9L18.4,27.1L15.5,24.2l-2.9-2.9L28.3,5.4z
				 M38.9,7.7l-7-7C31.8,0.6,31.6,0.5,31.4,0.5c-0.2,0-0.4,0.1-0.5,0.2l-20,20c-0.1,0.1-0.1,0.1-0.1,0.2V21l-1.2,8.1
				c0,0.2,0,0.5,0.2,0.601c0.1,0.1,0.3,0.2,0.5,0.2h0.1l8.1-1.2h0.1c0.1,0,0.2-0.101,0.2-0.101l16.8-16.8L38.7,8.7
				C39.2,8.4,39.2,8,38.9,7.7L38.9,7.7z"/>
		</g>
	</g>
</g>
</svg>
