<svg id="Layer_2" data-name="Layer 2" xmlns="http://www.w3.org/2000/svg" viewBox="0 0 90 73.56"><defs><style>.cls-1{fill:#ff5f57;}</style></defs><title>site_icon3</title><path class="cls-1" d="M86,75.11L54,67.34l-17-4.12,15.76-4.65L81.94,50a12.32,12.32,0,0,0-7-23.64l-29.1,8.58L14.29,44.24a12.32,12.32,0,0,0-3.44,22,12.28,12.28,0,0,0,7.9,17.87l29.48,7.16,32,7.78A12.32,12.32,0,0,0,86,75.11ZM45.46,36.4l29.88-8.81a11,11,0,0,1,6.24,21.16L51.86,57.51a30.3,30.3,0,0,1-5.18-10.69C45.09,41.4,45.17,38.11,45.46,36.4ZM9.5,58.5a0.65,0.65,0,0,1-1.24.37,10.06,10.06,0,0,1,4.53-11.5l0.14-.06a0.65,0.65,0,0,1,.5,1.18A8.75,8.75,0,0,0,9.5,58.5ZM53.81,79.26a30.3,30.3,0,0,1-4.66,10.92l-30.1-7.32a11,11,0,0,1,5.21-21.43l10.34,2.51,19.93,4.84C54.91,70.48,55.15,73.76,53.81,79.26Zm39,10.17a0.65,0.65,0,0,1-1.26-.31,8.75,8.75,0,0,0-4.41-9.81,0.65,0.65,0,0,1,.45-1.2l0.14,0.05A10.05,10.05,0,0,1,92.77,89.43Z" transform="translate(-5.45 -25.85)"/></svg>