<svg id="Layer_3" data-name="Layer 3" xmlns="http://www.w3.org/2000/svg" viewBox="0 0 90 90"><defs><style>.cls-1{fill:#4bbcef;}</style></defs><title>site_icon2</title><path class="cls-1" d="M47.81,18a44.87,44.87,0,0,0-24.73,8.9,40.64,40.64,0,0,0-4.89,4.24A40.78,40.78,0,0,0,15,34.7a45,45,0,0,0-2.61,53,43.45,43.45,0,0,0,6.08,7.38A45,45,0,0,0,78.29,98a48.35,48.35,0,0,0,6.51-6.47A45,45,0,0,0,85,34.7,47.48,47.48,0,0,0,78.28,28,44.83,44.83,0,0,0,49.82,18C49.12,18,48.23,18,47.81,18Zm3.85,2.61a42.19,42.19,0,0,1,26.5,10.67C79,32.08,81,34.11,81.81,35a42.38,42.38,0,0,1-45.27,68.2A42.49,42.49,0,0,1,15.26,87.26,42.37,42.37,0,0,1,51.65,20.65Z" transform="translate(-5 -18)"/><path class="cls-1" d="M49.36,30.6a1.29,1.29,0,0,0-.63.7c0,0.11-.06,4-0.06,16V63.06l0.13,0.28a1.21,1.21,0,0,0,.65.63l0.2,0.1h11c9.4,0,11,0,11.18-.07a1.48,1.48,0,0,0,.81-0.8,1.33,1.33,0,0,0-.71-1.63l-0.24-.11H51.29v-15l0-15-0.11-.19A1.24,1.24,0,0,0,50,30.46,1.12,1.12,0,0,0,49.36,30.6Z" transform="translate(-5 -18)"/></svg>