<svg id="Layer_4" data-name="Layer 4" xmlns="http://www.w3.org/2000/svg" viewBox="0 0 78.12 90"><defs><style>.cls-1{fill:#ffd000;}</style></defs><title>site_icon4</title><path class="cls-1" d="M89,37.3h0a0.23,0.23,0,0,0-.12-0.23h0L88.75,37h0l-0.12-.12h0L50.25,17.59a0.73,0.73,0,0,0-.69,0L28,28.42a0.63,0.63,0,0,0-.58.35L11.29,36.84h0a0.11,0.11,0,0,0-.12.12h0l-0.12.12h0a0.11,0.11,0,0,1-.12.12h0V87.33a0.63,0.63,0,0,0,.46.69L49.56,107.5H50L88.41,88a0.78,0.78,0,0,0,.46-0.69V37.41C89.1,37.41,89.1,37.3,89,37.3ZM49.9,19.09L86.56,37.41,74.11,43.64,37.45,25.43ZM66.16,47.33L29.85,29.23l5.88-3L72.38,44.56l-6,3A0.44,0.44,0,0,0,66.16,47.33Zm0.46,1.84L73,45.94V63.35l-6.34,3.46V49.17ZM28.12,30L64.77,48.36,49.9,55.74,13.25,37.41ZM12.33,38.68L49.21,57.13v48.41L12.33,86.87V38.68Zm38.39,66.86V57.13L65.12,50V68.19a0.82,0.82,0,0,0,.35.69,0.58,0.58,0,0,0,.69,0l8-4.27a0.7,0.7,0,0,0,.35-0.69V45.25l13-6.46V87Z" transform="translate(-10.94 -17.5)"/></svg>